<svg xmlns="http://www.w3.org/2000/svg" xmlns:xlink="http://www.w3.org/1999/xlink" viewBox="0 0 48 48" width="256" height="256"><defs><linearGradient id="a" x1="5.5" x2="5.5" y1="46.16" y2="14" gradientUnits="userSpaceOnUse"><stop offset="0" stop-color="#54a5ff" class="stopColor54a5ff svgShape"></stop><stop offset="1" stop-color="#8ad3fe" class="stopColor8ad3fe svgShape"></stop></linearGradient><linearGradient id="c" x1="42.5" x2="42.5" y1="46.16" xlink:href="#a"></linearGradient><linearGradient id="d" x1="24" x2="24" y1="47" y2="31" xlink:href="#a"></linearGradient><linearGradient id="e" x1="24" x2="24" y1="27" xlink:href="#a"></linearGradient><linearGradient id="b" x1="24" x2="24" y1="21.38" y2="1" gradientUnits="userSpaceOnUse"><stop offset="0" stop-color="#d3e6f5" class="stopColord3e6f5 svgShape"></stop><stop offset="1" stop-color="#f0f7fc" class="stopColorf0f7fc svgShape"></stop></linearGradient><linearGradient id="f" x1="4" x2="12" y1="41" y2="41" xlink:href="#b"></linearGradient></defs><path fill="#4795ea" d="M46.62,46.16A2,2,0,0,1,45,47H3a2,2,0,0,1-1.62-.84C9.28,28.59,7.64,32.24,10,27H38C40.54,32.65,38.66,28.48,46.62,46.16Z" class="color4795ea svgShape"></path><path fill="url(#a)" d="M10,14V27c-2.54,5.65-.66,1.48-8.62,19.16A1.9,1.9,0,0,1,1,45V31Z"></path><path fill="url(#c)" d="M47,31V45a1.9,1.9,0,0,1-.38,1.16C38.72,28.59,40.36,32.24,38,27V14Z"></path><path fill="url(#d)" d="M47,31V45a2,2,0,0,1-2,2H3a2,2,0,0,1-2-2V31H18.09a1,1,0,0,1,1,.85,5,5,0,0,0,8.47,2.69,5.06,5.06,0,0,0,1.39-2.69,1,1,0,0,1,1-.85Z"></path><rect width="28" height="13" x="10" y="14" fill="url(#e)"></rect><path fill="url(#b)" d="M33,10a9,9,0,1,0-10.57,8.85l1.12,2.26a.51.51,0,0,0,.9,0l1.12-2.26A9,9,0,0,0,33,10Z"></path><path fill="#ffb369" d="M25.41,10l2.3-2.29a1,1,0,1,0-1.42-1.42L24,8.59l-2.29-2.3a1,1,0,0,0-1.42,1.42L22.59,10l-2.3,2.29a1,1,0,0,0,1.42,1.42L24,11.41l2.29,2.3a1,1,0,0,0,1.42-1.42Z" class="colorffb369 svgShape"></path><rect width="8" height="6" x="4" y="38" fill="url(#f)" rx="1"></rect><path fill="#ffb369" d="M9,42H7a1,1,0,0,1,0-2H9a1,1,0,0,1,0,2Z" class="colorffb369 svgShape"></path><path fill="#4795ea" d="M17 44H15a1 1 0 010-2h2a1 1 0 010 2zM19 40H15a1 1 0 010-2h4a1 1 0 010 2z" class="color4795ea svgShape"></path></svg>